<svg version="1.1" id="Layer_1" xmlns="http://www.w3.org/2000/svg" xmlns:xlink="http://www.w3.org/1999/xlink" x="0px" y="0px"
	 width="100%" viewBox="0 0 200 200" enable-background="new 0 0 200 200" xml:space="preserve">
<path fill="#005DF4" opacity="1.000000" stroke="none" 
	d="
M1.000000,200.000000 
	C1.000000,135.312439 1.000000,70.624878 1.468657,5.468657 
	C64.373337,5.000026 126.809364,4.998816 189.245392,5.001657 
	C196.986923,5.002010 196.997833,5.011989 196.998215,12.692868 
	C197.001297,75.461914 196.999969,138.230957 197.000000,201.000000 
	C132.312439,201.000000 67.624878,201.000000 2.317083,200.818665 
	C1.483519,200.404160 1.251236,200.191711 1.000000,200.000000 
M111.836807,146.439011 
	C111.286888,146.128937 110.736969,145.818878 110.187042,145.508804 
	C110.056381,145.772217 109.925720,146.035645 109.795052,146.299057 
	C110.499542,146.564667 111.204025,146.830276 111.792488,147.656326 
	C111.351570,148.605499 110.910652,149.554672 109.992447,151.531326 
	C111.452019,150.486786 112.424805,150.143616 112.502495,149.657425 
	C112.640472,148.793900 112.235748,147.843674 111.836807,146.439011 
M94.455132,148.448730 
	C95.002693,148.954605 95.550262,149.460480 96.097824,149.966354 
	C96.420509,149.767242 96.743195,149.568115 97.065887,149.368988 
	C96.382263,148.234314 95.698647,147.099625 95.015022,145.964951 
	C94.653847,146.611969 94.292671,147.258987 93.380417,147.764069 
	C92.536049,147.435364 91.691673,147.106659 90.847298,146.777969 
	C90.611069,147.074951 90.374840,147.371933 90.138611,147.668915 
	C91.082954,148.462952 92.027298,149.257004 92.971649,150.051056 
	C93.337601,149.389130 93.703552,148.727188 94.455132,148.448730 
M120.236557,147.864975 
	C118.645020,146.955139 117.053482,146.045303 114.505516,144.588715 
	C114.758385,147.331009 114.911552,148.992126 115.186310,151.971786 
	C117.765007,150.251846 119.409782,149.154800 121.675568,147.948151 
	C122.224770,147.344147 122.773972,146.740143 123.323181,146.136154 
	C122.815155,145.859711 122.307129,145.583282 121.799103,145.306839 
	C121.504097,146.186325 121.209084,147.065811 120.236557,147.864975 
M82.567528,116.225891 
	C83.764694,116.910919 84.961861,117.595947 86.159027,118.280968 
	C87.011940,116.322273 87.864845,114.363579 88.838150,112.128403 
	C90.054253,112.128403 91.657784,112.128403 93.409996,112.128403 
	C93.540070,113.117699 93.470963,113.998604 93.789139,114.705101 
	C94.365784,115.985527 95.173203,117.162025 95.884277,118.381905 
	C96.559113,117.115936 97.647484,115.903259 97.818993,114.572426 
	C98.134132,112.126900 98.139297,109.583405 97.836952,107.134674 
	C97.595024,105.175240 99.507332,101.959900 95.714676,101.781059 
	C95.109512,101.752518 94.351013,105.085289 93.650734,106.859100 
	C93.531433,107.161293 93.347771,107.438072 93.117348,107.869972 
	C91.583473,107.869972 89.976677,107.869972 88.157089,107.869972 
	C88.028130,106.397316 88.154266,105.028702 87.727058,103.862862 
	C87.395142,102.957123 86.372963,102.304337 85.657578,101.539108 
	C84.907516,102.421501 83.775826,103.199883 83.500092,104.211555 
	C83.121078,105.602150 83.550301,107.191727 83.345886,108.655930 
	C82.989922,111.205719 82.414406,113.724861 81.868652,115.509895 
	C79.988533,111.642044 78.143280,107.756706 76.215446,103.912781 
	C75.027962,101.545036 73.378166,100.132591 71.640892,103.302231 
	C69.498360,107.211258 67.642540,111.287956 65.885155,115.387512 
	C65.581032,116.096931 66.380249,117.279320 66.669830,118.243248 
	C67.592239,117.883087 68.771759,117.769440 69.393486,117.120995 
	C72.417923,113.966522 75.260139,113.839005 78.028633,117.281120 
	C79.899269,119.606926 80.879074,118.698784 82.567528,116.225891 
M117.061752,109.694305 
	C117.316345,111.794563 117.418442,113.930489 117.897499,115.978233 
	C118.100838,116.847435 119.094650,117.531708 119.729210,118.300026 
	C120.432167,117.562424 121.600327,116.904236 121.742577,116.070915 
	C122.051971,114.258507 121.838081,112.356766 121.838081,110.491539 
	C125.246140,115.408722 128.189133,114.286667 131.453400,110.043518 
	C131.613983,112.187103 131.464966,113.555519 131.872116,114.731339 
	C132.319427,116.023079 133.278915,117.137474 134.015228,118.329140 
	C134.682755,117.208916 135.833237,116.127083 135.925919,114.961166 
	C136.188431,111.658707 136.138931,108.314995 135.950912,105.002357 
	C135.887314,103.881462 135.041916,102.804932 134.553787,101.708115 
	C133.417542,102.217659 132.028854,102.471558 131.198822,103.291199 
	C129.586838,104.883064 128.288605,106.792641 127.062241,108.319305 
	C123.407196,106.756905 123.444267,100.933754 117.774254,101.926376 
	C117.774254,104.154984 117.923645,106.137901 117.690155,108.074654 
	C117.612389,108.719711 116.553398,109.246475 116.023560,108.944672 
	C114.537735,103.478333 111.047234,100.615784 106.703011,101.300888 
	C102.252357,102.002777 99.143837,105.943268 99.373756,110.591743 
	C99.596420,115.093224 103.443199,118.863914 107.808868,118.860001 
	C112.262512,118.856003 115.342155,115.514214 117.061752,109.694305 
M120.081528,64.733795 
	C115.983772,56.728615 109.801781,51.763660 100.497231,51.559189 
	C94.674347,51.431229 88.846298,51.441887 83.022690,51.530460 
	C81.931557,51.547058 80.850517,52.227116 79.764816,52.601006 
	C79.798271,53.109787 79.831718,53.618568 79.865173,54.127350 
	C82.472969,54.507416 85.080765,54.887482 87.771263,55.279598 
	C84.454163,61.950768 77.317108,56.725796 72.795265,61.224731 
	C75.777351,61.560116 78.759438,61.895500 82.147331,62.276524 
	C78.738037,69.653702 79.226021,76.796829 82.762444,83.479568 
	C80.779854,84.231155 79.178864,84.838081 77.577866,85.445000 
	C77.646317,85.862968 77.714767,86.280930 77.783218,86.698891 
	C81.280174,87.361526 84.777138,88.024155 88.274094,88.686783 
	C88.192863,89.342651 88.111626,89.998512 88.030388,90.654373 
	C82.972305,90.654373 77.914215,90.654373 72.856125,90.654373 
	C73.309044,92.147118 73.814308,92.878563 74.262520,92.845139 
	C87.016464,91.893929 100.245049,96.137108 112.492905,89.437210 
	C112.709923,89.318497 113.230568,89.754829 113.455078,90.771828 
	C113.389450,90.924889 113.306549,91.073303 113.263756,91.232498 
	C113.230499,91.356201 113.247292,91.493340 113.241844,91.624512 
	C118.824615,91.624512 124.407379,91.624512 130.086578,91.624512 
	C130.086578,86.355621 130.703644,81.091995 129.881287,76.063789 
	C129.279266,72.382874 126.982841,68.893166 124.997177,65.585030 
	C124.502312,64.760582 122.289841,64.967117 120.081528,64.733795 
M85.650040,146.554657 
	C84.779266,146.698959 83.802666,146.643799 83.063446,147.036041 
	C82.048744,147.574463 81.213989,148.451996 80.302116,149.184204 
	C81.335808,149.693741 82.844200,150.897781 83.311348,150.578461 
	C84.554443,149.728775 88.219238,150.203461 85.650040,146.554657 
M98.719810,146.971802 
	C99.297279,147.219589 99.874748,147.467392 100.452217,147.715195 
	C100.423454,147.135956 100.394691,146.556717 100.365921,145.977478 
	C99.794434,146.136429 99.222954,146.295364 98.719810,146.971802 
M106.743774,149.849762 
	C106.897987,149.961334 107.052193,150.072891 107.206406,150.184464 
	C107.109215,150.021408 107.012016,149.858337 106.743774,149.849762 
M87.944824,150.421387 
	C87.944824,150.421387 88.033005,150.425110 87.944824,150.421387 
M105.525330,145.498444 
	C105.525330,145.498444 105.486832,145.511795 105.525330,145.498444 
z"/>
<path fill="#005DF4" opacity="1.000000" stroke="none" 
	d="
M197.500000,201.000000 
	C196.999969,138.230957 197.001297,75.461914 196.998215,12.692868 
	C196.997833,5.011989 196.986923,5.002010 189.245392,5.001657 
	C126.809364,4.998816 64.373337,5.000026 1.468657,5.000000 
	C1.000000,3.666667 1.000000,2.333333 1.000000,1.000000 
	C67.666664,1.000000 134.333328,1.000000 201.000000,1.000000 
	C201.000000,66.500000 200.994690,132.000000 201.023087,197.499985 
	C201.024033,199.680771 201.438095,201.923126 197.500000,201.000000 
z"/>
<path fill="#005DF4" opacity="1.000000" stroke="none" 
	d="
M1.000000,200.500000 
	C1.251236,200.191711 1.483519,200.404160 1.848425,200.818665 
	C1.666667,201.000000 1.333333,201.000000 1.000000,200.500000 
z"/>
<path fill="#ECF0F5" opacity="1.000000" stroke="none" 
	d="
M113.609535,89.932167 
	C113.230568,89.754829 112.709923,89.318497 112.492905,89.437210 
	C100.245049,96.137108 87.016464,91.893929 74.262520,92.845139 
	C73.814308,92.878563 73.309044,92.147118 72.856125,90.654373 
	C77.914215,90.654373 82.972305,90.654373 88.030388,90.654373 
	C88.111626,89.998512 88.192863,89.342651 88.274094,88.686783 
	C84.777138,88.024155 81.280174,87.361526 77.783218,86.698891 
	C77.714767,86.280930 77.646317,85.862968 77.577866,85.445000 
	C79.178864,84.838081 80.779854,84.231155 82.762444,83.479568 
	C79.226021,76.796829 78.738037,69.653702 82.147331,62.276524 
	C78.759438,61.895500 75.777351,61.560116 72.795265,61.224731 
	C77.317108,56.725796 84.454163,61.950768 87.771263,55.279598 
	C85.080765,54.887482 82.472969,54.507416 79.865173,54.127350 
	C79.831718,53.618568 79.798271,53.109787 79.764816,52.601006 
	C80.850517,52.227116 81.931557,51.547058 83.022690,51.530460 
	C88.846298,51.441887 94.674347,51.431229 100.497231,51.559189 
	C109.801781,51.763660 115.983772,56.728615 120.509132,64.647209 
	C120.936737,64.560623 121.031319,64.437943 120.596458,64.408936 
	C121.641388,70.902931 121.870003,77.289490 118.235321,83.308189 
	C118.115685,83.506294 118.730606,84.148018 118.923195,84.805428 
	C118.421005,85.690231 117.998726,86.352570 117.410042,86.474571 
	C116.468109,86.625443 115.692589,87.316650 114.945496,87.989258 
	C114.973930,87.970673 115.021194,87.921875 114.565582,88.017609 
	C113.898331,88.764061 113.686691,89.414780 113.508301,90.031799 
	C113.541557,89.998093 113.609535,89.932167 113.609535,89.932167 
M95.578766,60.484478 
	C89.402565,63.952541 86.997047,68.440453 87.983261,74.655167 
	C88.747993,79.474213 92.872269,83.805984 97.683701,84.843636 
	C102.914207,85.971664 108.167679,83.918465 111.083199,79.372154 
	C114.039017,74.762993 114.114349,69.928902 111.144913,65.343964 
	C107.617821,59.897945 102.394943,58.694153 95.578766,60.484478 
z"/>
<path fill="#ECEFF5" opacity="1.000000" stroke="none" 
	d="
M113.532303,90.351997 
	C113.609535,89.932167 113.541557,89.998093 113.967545,89.963364 
	C114.602745,89.259712 114.811966,88.590797 115.021194,87.921875 
	C115.021194,87.921875 114.973930,87.970673 115.224060,88.356430 
	C116.174950,88.166420 116.875702,87.590660 117.576454,87.014900 
	C117.998726,86.352570 118.421005,85.690231 119.260887,84.607307 
	C123.405907,77.828232 124.666763,71.300789 121.031319,64.437943 
	C121.031319,64.437943 120.936737,64.560623 120.901779,64.630203 
	C122.289841,64.967117 124.502312,64.760582 124.997177,65.585030 
	C126.982841,68.893166 129.279266,72.382874 129.881287,76.063789 
	C130.703644,81.091995 130.086578,86.355621 130.086578,91.624512 
	C124.407379,91.624512 118.824615,91.624512 113.241844,91.624512 
	C113.247292,91.493340 113.230499,91.356201 113.263756,91.232498 
	C113.306549,91.073303 113.389450,90.924889 113.532303,90.351997 
z"/>
<path fill="#ECEFF5" opacity="1.000000" stroke="none" 
	d="
M115.942970,109.827309 
	C116.553398,109.246475 117.612389,108.719711 117.690155,108.074654 
	C117.923645,106.137901 117.774254,104.154984 117.774254,101.926376 
	C123.444267,100.933754 123.407196,106.756905 127.062241,108.319305 
	C128.288605,106.792641 129.586838,104.883064 131.198822,103.291199 
	C132.028854,102.471558 133.417542,102.217659 134.553787,101.708115 
	C135.041916,102.804932 135.887314,103.881462 135.950912,105.002357 
	C136.138931,108.314995 136.188431,111.658707 135.925919,114.961166 
	C135.833237,116.127083 134.682755,117.208916 134.015228,118.329140 
	C133.278915,117.137474 132.319427,116.023079 131.872116,114.731339 
	C131.464966,113.555519 131.613983,112.187103 131.453400,110.043518 
	C128.189133,114.286667 125.246140,115.408722 121.838081,110.491539 
	C121.838081,112.356766 122.051971,114.258507 121.742577,116.070915 
	C121.600327,116.904236 120.432167,117.562424 119.729210,118.300026 
	C119.094650,117.531708 118.100838,116.847435 117.897499,115.978233 
	C117.418442,113.930489 117.316345,111.794563 116.559113,109.833313 
	C116.056473,109.972321 115.942970,109.827309 115.942970,109.827309 
z"/>
<path fill="#D9E4F5" opacity="1.000000" stroke="none" 
	d="
M81.930923,116.256851 
	C82.414406,113.724861 82.989922,111.205719 83.345886,108.655930 
	C83.550301,107.191727 83.121078,105.602150 83.500092,104.211555 
	C83.775826,103.199883 84.907516,102.421501 85.657578,101.539108 
	C86.372963,102.304337 87.395142,102.957123 87.727058,103.862862 
	C88.154266,105.028702 88.028130,106.397316 88.157089,107.869972 
	C89.976677,107.869972 91.583473,107.869972 93.117348,107.869972 
	C93.347771,107.438072 93.531433,107.161293 93.650734,106.859100 
	C94.351013,105.085289 95.109512,101.752518 95.714676,101.781059 
	C99.507332,101.959900 97.595024,105.175240 97.836952,107.134674 
	C98.139297,109.583405 98.134132,112.126900 97.818993,114.572426 
	C97.647484,115.903259 96.559113,117.115936 95.884277,118.381905 
	C95.173203,117.162025 94.365784,115.985527 93.789139,114.705101 
	C93.470963,113.998604 93.540070,113.117699 93.409996,112.128403 
	C91.657784,112.128403 90.054253,112.128403 88.838150,112.128403 
	C87.864845,114.363579 87.011940,116.322273 86.159027,118.280968 
	C84.961861,117.595947 83.764694,116.910919 82.237625,116.362686 
	C81.907722,116.499474 81.930923,116.256851 81.930923,116.256851 
z"/>
<path fill="#E0E8F5" opacity="1.000000" stroke="none" 
	d="
M115.983261,109.385986 
	C115.942970,109.827309 116.056473,109.972321 116.028488,109.971695 
	C115.342155,115.514214 112.262512,118.856003 107.808868,118.860001 
	C103.443199,118.863914 99.596420,115.093224 99.373756,110.591743 
	C99.143837,105.943268 102.252357,102.002777 106.703011,101.300888 
	C111.047234,100.615784 114.537735,103.478333 115.983261,109.385986 
M105.824158,113.911102 
	C107.751778,113.219757 110.226006,113.004395 111.399704,111.656540 
	C112.091209,110.862434 111.229218,107.752762 110.112045,106.656998 
	C109.248528,105.810028 106.400322,105.797806 105.317307,106.602562 
	C102.806206,108.468498 103.078514,111.093628 105.824158,113.911102 
z"/>
<path fill="#E3EAF5" opacity="1.000000" stroke="none" 
	d="
M81.899788,115.883377 
	C81.930923,116.256851 81.907722,116.499474 81.919861,116.620735 
	C80.879074,118.698784 79.899269,119.606926 78.028633,117.281120 
	C75.260139,113.839005 72.417923,113.966522 69.393486,117.120995 
	C68.771759,117.769440 67.592239,117.883087 66.669830,118.243248 
	C66.380249,117.279320 65.581032,116.096931 65.885155,115.387512 
	C67.642540,111.287956 69.498360,107.211258 71.640892,103.302231 
	C73.378166,100.132591 75.027962,101.545036 76.215446,103.912781 
	C78.143280,107.756706 79.988533,111.642044 81.899788,115.883377 
z"/>
<path fill="#015DF4" opacity="1.000000" stroke="none" 
	d="
M85.870369,146.686462 
	C88.219238,150.203461 84.554443,149.728775 83.311348,150.578461 
	C82.844200,150.897781 81.335808,149.693741 80.302116,149.184204 
	C81.213989,148.451996 82.048744,147.574463 83.063446,147.036041 
	C83.802666,146.643799 84.779266,146.698959 85.870369,146.686462 
z"/>
<path fill="#015DF4" opacity="1.000000" stroke="none" 
	d="
M121.054550,148.057770 
	C119.409782,149.154800 117.765007,150.251846 115.186310,151.971786 
	C114.911552,148.992126 114.758385,147.331009 114.505516,144.588715 
	C117.053482,146.045303 118.645020,146.955139 120.611160,147.932343 
	C120.985771,147.999710 121.054550,148.057755 121.054550,148.057770 
z"/>
<path fill="#015DF4" opacity="1.000000" stroke="none" 
	d="
M93.931503,147.906006 
	C94.292671,147.258987 94.653847,146.611969 95.015030,145.964951 
	C95.698647,147.099625 96.382263,148.234314 97.065887,149.368988 
	C96.743195,149.568115 96.420509,149.767242 96.097824,149.966354 
	C95.550262,149.460480 95.002693,148.954605 94.226685,148.218155 
	C93.998245,147.987579 93.931511,147.906006 93.931503,147.906006 
z"/>
<path fill="#015DF4" opacity="1.000000" stroke="none" 
	d="
M94.033875,148.026428 
	C93.703552,148.727188 93.337601,149.389130 92.971649,150.051056 
	C92.027298,149.257004 91.082954,148.462952 90.138611,147.668915 
	C90.374840,147.371933 90.611069,147.074951 90.847298,146.777969 
	C91.691673,147.106659 92.536049,147.435364 93.655960,147.835037 
	C93.931511,147.906006 93.998245,147.987579 94.033875,148.026428 
z"/>
<path fill="#015DF4" opacity="1.000000" stroke="none" 
	d="
M120.949921,147.972504 
	C121.209084,147.065811 121.504097,146.186325 121.799103,145.306839 
	C122.307129,145.583282 122.815155,145.859711 123.323181,146.136154 
	C122.773972,146.740143 122.224770,147.344147 121.365059,148.002960 
	C121.054550,148.057755 120.985771,147.999710 120.949921,147.972504 
z"/>
<path fill="#015DF4" opacity="1.000000" stroke="none" 
	d="
M98.685638,146.713043 
	C99.222954,146.295364 99.794434,146.136429 100.365921,145.977478 
	C100.394691,146.556717 100.423454,147.135956 100.452209,147.715195 
	C99.874748,147.467392 99.297279,147.219589 98.685638,146.713043 
z"/>
<path fill="#015DF4" opacity="1.000000" stroke="none" 
	d="
M112.058067,146.929718 
	C112.235748,147.843674 112.640472,148.793900 112.502495,149.657425 
	C112.424805,150.143616 111.452019,150.486786 109.992447,151.531326 
	C110.910652,149.554672 111.351570,148.605499 111.888443,147.335052 
	C111.984390,147.013794 112.058067,146.929718 112.058067,146.929718 
z"/>
<path fill="#015DF4" opacity="1.000000" stroke="none" 
	d="
M111.946449,147.054840 
	C111.204025,146.830276 110.499542,146.564667 109.795052,146.299057 
	C109.925720,146.035645 110.056381,145.772217 110.187042,145.508804 
	C110.736969,145.818878 111.286888,146.128937 111.947433,146.684357 
	C112.058067,146.929718 111.984390,147.013794 111.946449,147.054840 
z"/>
<path fill="#015DF4" opacity="1.000000" stroke="none" 
	d="
M106.829300,149.772522 
	C107.012016,149.858337 107.109215,150.021408 107.206406,150.184464 
	C107.052193,150.072891 106.897987,149.961334 106.829300,149.772522 
z"/>
<path fill="#015DF4" opacity="1.000000" stroke="none" 
	d="
M87.988914,150.423248 
	C88.033005,150.425110 87.944824,150.421387 87.988914,150.423248 
z"/>
<path fill="#015DF4" opacity="1.000000" stroke="none" 
	d="
M105.506081,145.505127 
	C105.486832,145.511795 105.525330,145.498444 105.506081,145.505127 
z"/>
<path fill="#0661F4" opacity="1.000000" stroke="none" 
	d="
M95.959396,60.321377 
	C102.394943,58.694153 107.617821,59.897945 111.144913,65.343964 
	C114.114349,69.928902 114.039017,74.762993 111.083199,79.372154 
	C108.167679,83.918465 102.914207,85.971664 97.683701,84.843636 
	C92.872269,83.805984 88.747993,79.474213 87.983261,74.655167 
	C86.997047,68.440453 89.402565,63.952541 95.959396,60.321377 
M95.539948,71.770927 
	C95.587387,75.120399 97.192215,77.474808 100.596542,76.958870 
	C102.241867,76.709518 104.534897,74.719444 104.821030,73.195740 
	C105.111275,71.650070 103.730835,68.872505 102.299446,68.116692 
	C99.493744,66.635208 96.814407,67.616699 95.539948,71.770927 
z"/>
<path fill="#015DF4" opacity="1.000000" stroke="none" 
	d="
M120.596458,64.408936 
	C124.666763,71.300789 123.405907,77.828232 119.340805,84.384834 
	C118.730606,84.148018 118.115685,83.506294 118.235321,83.308189 
	C121.870003,77.289490 121.641388,70.902931 120.596458,64.408936 
z"/>
<path fill="#015DF4" opacity="1.000000" stroke="none" 
	d="
M114.565582,88.017609 
	C114.811966,88.590797 114.602745,89.259712 113.934280,89.997070 
	C113.686691,89.414780 113.898331,88.764061 114.565582,88.017609 
z"/>
<path fill="#015DF4" opacity="1.000000" stroke="none" 
	d="
M117.410042,86.474571 
	C116.875702,87.590660 116.174950,88.166420 115.195633,88.375015 
	C115.692589,87.316650 116.468109,86.625443 117.410042,86.474571 
z"/>
<path fill="#0761F4" opacity="1.000000" stroke="none" 
	d="
M105.458450,113.686356 
	C103.078514,111.093628 102.806206,108.468498 105.317307,106.602562 
	C106.400322,105.797806 109.248528,105.810028 110.112045,106.656998 
	C111.229218,107.752762 112.091209,110.862434 111.399704,111.656540 
	C110.226006,113.004395 107.751778,113.219757 105.458450,113.686356 
z"/>
<path fill="#EAEEF5" opacity="1.000000" stroke="none" 
	d="
M95.625854,71.416992 
	C96.814407,67.616699 99.493744,66.635208 102.299446,68.116692 
	C103.730835,68.872505 105.111275,71.650070 104.821030,73.195740 
	C104.534897,74.719444 102.241867,76.709518 100.596542,76.958870 
	C97.192215,77.474808 95.587387,75.120399 95.625854,71.416992 
z"/>
</svg>